# xmcd CD database file generated by OrangeCD 5.0
#
# Track frame offsets:
#	150
#	33785
#	68063
#	97063
#	111808
#	137805
#	179495
#	193595
#	216573
#	254055
#	284190
#	298994
#
# Disc length: 4122 seconds
#
# Revision: 0
# Processed by: cddbd v1.4PL0 Copyright (c) Steve Scherf et al.
# Submitted via: OrangeCD 5.0
#
DISCID=d010180c
DTITLE=Livin' Blues - Live' 75
DYEAR=1974
DGENRE=Blues
TTITLE0=Black Spider Woman
TTITLE1=I'm A Rambler
TTITLE2=Hoochie Coochie Man
TTITLE3=Crazy Joe
TTITLE4=I Wonder
TTITLE5=L.B. Boogie
TTITLE6=Boney Marony
TTITLE7=Rock and Roll Hoochie Coo
TTITLE8=I'm Coming'home
TTITLE9=See My Babu Drive
TTITLE10=Back Stage
TTITLE11=Boogie Woogie Woman
EXTD=
EXTT0=
EXTT1=
EXTT2=
EXTT3=
EXTT4=
EXTT5=
EXTT6=
EXTT7=
EXTT8=
EXTT9=
EXTT10=
EXTT11=
PLAYORDER=
